<svg width="277" height="63" viewBox="0 0 277 63" fill="none" xmlns="http://www.w3.org/2000/svg">
<path d="M77.1023 8.26244H85.3646V27.1108H77.1023V8.26244ZM77.1023 33.6518H85.3646V54.7379H77.1023V33.6518ZM85.3646 54.7379H99.2211C111.27 54.7379 113.422 49.5739 113.422 44.3239C113.422 39.0739 111.27 33.6518 99.2211 33.6518H85.3646V27.1108H99.6515C107.914 27.1108 110.324 21.6887 110.324 17.4715C110.324 13.2542 107.914 8.26244 99.6515 8.26244H85.3646V1.3772H100.684C114.369 1.3772 119.447 9.72555 119.447 17.6436C119.447 21.8608 117.381 27.369 111.615 29.6067V29.7788C120.307 32.1887 122.459 38.4715 122.459 44.1518C122.459 53.1026 117.123 61.6231 99.8236 61.6231H85.3646V54.7379Z" fill="#E7D2F9"/>
<path d="M134.077 8.26244H142.34V31.4141H134.077V8.26244ZM142.34 61.6231H134.077V37.7829H142.34V61.6231ZM142.34 31.4141H154.389C164.372 31.4141 167.643 27.4551 167.643 19.7952C167.643 12.1354 164.372 8.26244 154.389 8.26244H142.34V1.3772H156.799C170.483 1.3772 176.422 9.03704 176.422 19.537C176.422 30.037 170.483 37.7829 156.799 37.7829H142.34V31.4141Z" fill="#E7D2F9"/>
<path d="M216.614 16.6111C216.614 10.1562 211.02 6.62755 205.254 6.62755C199.487 6.62755 193.893 10.5005 193.032 16.8693H184.942C186.75 6.36934 193.204 0.000488281 205.856 0.000488281C218.508 0.000488281 225.135 7.74639 225.135 16.6111C225.135 34.0825 193.893 43.4636 193.893 54.3939H185.286C185.286 41.6562 216.614 31.3284 216.614 16.6111ZM225.479 54.3939V61.6234H193.893V54.3939H225.479Z" fill="#E7D2F9"/>
<path d="M244.672 26.7665H244.844C247.77 24.1846 252.418 22.7214 257.41 22.7214C267.737 22.7214 276.602 29.4346 276.602 42.7747C276.602 55.2542 268.77 63.0001 255.946 63.0001C244.586 63.0001 237.184 56.9756 235.549 47.078L243.811 44.8403C244.586 51.7255 249.233 56.3731 255.946 56.3731C263.262 56.3731 268.082 50.7788 268.082 42.7747C268.082 33.1354 262.229 29.2624 255.688 29.2624C250.696 29.2624 246.823 30.8977 243.983 34.3403H236.926L239.422 8.6067H246.307L244.672 26.7665ZM273.672 1.3772V8.6067H246.303V1.3772H273.672Z" fill="#E7D2F9"/>
<path d="M53.8083 44.9049L44.8832 54.1053C44.6896 54.3032 44.4529 54.4624 44.1904 54.5743C43.9279 54.6819 43.6482 54.7422 43.3642 54.7379H1.04146C0.83921 54.7379 0.641256 54.6819 0.473428 54.5743C0.3056 54.4711 0.172192 54.3161 0.09043 54.1397C0.00866769 53.9633 -0.0128413 53.7653 0.0172816 53.576C0.0517078 53.3866 0.14207 53.2059 0.279775 53.0639L9.21339 43.8635C9.40703 43.6655 9.6394 43.5063 9.9019 43.3944C10.1644 43.2868 10.4441 43.2309 10.7281 43.2266H53.0466C53.2488 43.2266 53.4468 43.2825 53.6146 43.3901C53.7824 43.4977 53.9158 43.6483 53.9976 43.8291C54.0794 44.0055 54.1009 44.2034 54.0664 44.3928C54.032 44.5821 53.9417 44.7629 53.804 44.9049H53.8083ZM44.879 26.3792C44.6853 26.1813 44.4486 26.0221 44.1861 25.9102C43.9236 25.8026 43.6439 25.7467 43.3599 25.7467H1.03716C0.834902 25.7467 0.636948 25.8026 0.469121 25.9102C0.301293 26.0178 0.167885 26.1684 0.0861225 26.3448C0.00436021 26.5213 -0.0171488 26.7192 0.0129741 26.9086C0.0474003 27.0979 0.137763 27.2786 0.275468 27.4207L9.20908 36.6211C9.40273 36.819 9.63509 36.9782 9.89759 37.0901C10.1601 37.1977 10.4398 37.2536 10.7238 37.2579H53.0423C53.2445 37.2579 53.4425 37.202 53.6103 37.0944C53.7781 36.9868 53.9115 36.8362 53.9933 36.6555C54.0751 36.479 54.0966 36.2811 54.0621 36.0917C54.0277 35.9024 53.9374 35.7217 53.7996 35.5797L44.8747 26.3792H44.879ZM1.04146 19.7694H43.3642C43.6482 19.7694 43.9279 19.7135 44.1904 19.6059C44.4529 19.4983 44.6853 19.3391 44.8832 19.1368L53.8083 9.93643C53.946 9.79442 54.0363 9.61799 54.0708 9.42434C54.1052 9.235 54.0793 9.03705 54.0019 8.86061C53.9201 8.68418 53.7867 8.53356 53.6189 8.42598C53.4511 8.3184 53.2531 8.26245 53.0509 8.26245H10.7324C10.4484 8.26245 10.1687 8.3184 9.90621 8.43029C9.64801 8.53787 9.41134 8.69709 9.21769 8.89934L0.284083 18.0997C0.146378 18.2417 0.055989 18.4182 0.0215628 18.6075C-0.0128634 18.7969 0.0129752 18.9948 0.0947375 19.1713C0.1765 19.3477 0.309881 19.4983 0.477709 19.6059C0.645537 19.7135 0.843491 19.7694 1.04575 19.7694H1.04146Z" fill="#E7D2F9"/>
</svg>
